<?xml version="1.0" encoding="utf-8"?>
<!-- Generator: Adobe Illustrator 24.3.0, SVG Export Plug-In . SVG Version: 6.00 Build 0)  -->
<svg version="1.1" id="Layer_1" xmlns="http://www.w3.org/2000/svg" xmlns:xlink="http://www.w3.org/1999/xlink" x="0px" y="0px"
	 viewBox="0 0 500 500" style="enable-background:new 0 0 500 500;" xml:space="preserve">
<style type="text/css">
	.st0{fill:url(#SVGID_1_);}
	.st1{fill:url(#SVGID_2_);}
	.st2{fill:url(#SVGID_3_);}
</style>

<img
  src="/logo.svg"
  alt="Engineered Tennis Logo"
  className="glow-hover w-28 mx-auto transition-all duration-700"
/>

<circle cx="250" cy="250" r="250"/>
<g>
	<radialGradient id="SVGID_1_" cx="164.0906" cy="135.7736" r="258.2934" gradientUnits="userSpaceOnUse">
		<stop  offset="0" style="stop-color:#D8F91C"/>
		<stop  offset="0.5186" style="stop-color:#68B123"/>
		<stop  offset="1" style="stop-color:#2E6D3E"/>
	</radialGradient>
	<path class="st0" d="M290.35,289.43l-21.31-21.31l21.31-21.31l21.31,21.31l-5.34,5.34l39.09,39.09
		c6.16-14.82,6.16-29.33,0.01-44.16c-4.8-11.58-12.4-21.6-22.58-29.75c-2.52-2.02-5.24-3.96-8.09-5.77
		c-7.92-5.03-16.54-8.33-25.66-11.82c-2.51-0.96-5.02-1.92-7.52-2.92c-14.84-5.94-30.19-12.09-43.53-22.23
		c-0.54-0.41-1.08-0.83-1.61-1.25c-16.87-13.52-24.67-31.23-23.18-52.63c0.1-1.39,0.24-2.77,0.39-4.13
		c-17.72,5.84-33.01,15.03-45.72,27.41l77.89,77.89l-6.03,40.85l23.13,23.13l5.9-5.9l22.15,22.15l-22.15,22.15l-22.15-22.15
		l5.62-5.62l-28.47-28.47l6.03-40.85l-72-72c-2.89,3.63-5.61,7.46-8.15,11.51c-11.12,17.76-17.07,37.71-17.69,59.33
		c3.56-1.04,7.58-1.78,12.45-2.3c14.33-1.53,25.91,1.42,35.4,9.03c1.58,1.27,3.11,2.68,4.57,4.2c5.52,5.8,9.99,12.94,13.66,21.83
		c2.58,6.25,5.07,12.63,7.48,18.8c1.97,5.03,3.94,10.07,5.96,15.08c5.25,12.97,12.31,22.88,21.58,30.31
		c1.05,0.84,2.14,1.66,3.24,2.43c22.35,15.69,44.38,18.41,67.34,8.31c14.27-6.27,25.76-15.9,34.27-28.65l-42.26-42.26L290.35,289.43
		z"/>
	<radialGradient id="SVGID_2_" cx="164.0906" cy="135.7736" r="258.2934" gradientUnits="userSpaceOnUse">
		<stop  offset="0" style="stop-color:#D8F91C"/>
		<stop  offset="0.5186" style="stop-color:#68B123"/>
		<stop  offset="1" style="stop-color:#2E6D3E"/>
	</radialGradient>
	<path class="st1" d="M367.17,237.37c-4.08-32.87-18.37-59.33-42.48-78.65c-5.24-4.2-11.03-8.13-17.21-11.68
		c-14.54-8.35-30.16-13.23-46.68-14.63l28.54,28.54l5.34-5.34l21.31,21.31l-21.31,21.31l-21.31-21.31l5.34-5.34l-39.08-39.08
		c-2.7,0.24-5.42,0.54-8.16,0.95c-0.04,0.01-0.09,0.01-0.13,0.02c-3.01,15.45-1.34,26.88,5.37,36.92
		c2.79,4.18,6.24,7.88,10.54,11.33c4.65,3.73,10.22,7.12,18.06,10.98c8.56,4.22,17.66,7.77,26.47,11.2
		c5.91,2.3,12.03,4.69,17.99,7.27c8.64,3.75,16.51,8.45,23.4,13.96c10.23,8.19,18.61,18.46,24.92,30.52
		c3.25,6.2,5.64,12.73,7.16,19.51C368.09,262.54,368.73,249.88,367.17,237.37z"/>
	<radialGradient id="SVGID_3_" cx="164.0906" cy="135.7736" r="258.2934" gradientUnits="userSpaceOnUse">
		<stop  offset="0" style="stop-color:#D8F91C"/>
		<stop  offset="0.5186" style="stop-color:#68B123"/>
		<stop  offset="1" style="stop-color:#2E6D3E"/>
	</radialGradient>
	<path class="st2" d="M199.4,328.29c-3.85-7.9-6.96-16.15-9.98-24.13c-0.61-1.61-1.22-3.22-1.83-4.82
		c-3.25-8.49-6.6-17.27-11.92-25.04c-1.93-2.82-4.09-5.19-6.43-7.07c-5.25-4.21-11.51-6.1-19.14-5.78
		c-6.14,0.26-12.18,1.65-17.33,3.02c5.24,32.81,19.28,58.57,41.75,76.57c11.57,9.27,25.64,16.71,41.82,22.11
		c6.82,2.27,14.04,3.74,21.83,4.43c-5.67-2.94-10.86-6.28-15.51-10.01C212.86,349.72,205.04,339.87,199.4,328.29z"/>
</g>
</svg>
