<?xml version="1.0" encoding="utf-8"?>
<!-- Generator: Adobe Illustrator 26.5.0, SVG Export Plug-In . SVG Version: 6.00 Build 0)  -->
<svg version="1.1" id="Layer_1" xmlns="http://www.w3.org/2000/svg" xmlns:xlink="http://www.w3.org/1999/xlink" x="0px" y="0px"
	 viewBox="0 0 2000 2000" style="enable-background:new 0 0 2000 2000;" xml:space="preserve">
<style type="text/css">
	.st0{display:none;}
	.st1{display:inline;}
	.st2{display:none;fill:none;stroke:#ED1C24;stroke-width:0.1012;stroke-miterlimit:10;}
	.st3{display:none;fill:#ED1C24;}
	.st4{display:inline;fill:#ED1C24;}
	.st5{display:none;fill:none;stroke:#ED1C24;stroke-width:0.3372;stroke-miterlimit:10;}
	.st6{display:inline;fill:none;stroke:#ED1C24;stroke-width:0.3372;stroke-miterlimit:10;}
	.st7{display:inline;fill:none;}
	.st8{display:none;fill:none;stroke:#ED1C24;stroke-width:0.2023;stroke-miterlimit:10;}
	.st9{display:inline;fill:#FFFFFF;}
	.st10{display:none;fill:none;stroke:#000000;stroke-width:0.0674;stroke-miterlimit:10;}
	.st11{display:inline;fill:none;stroke:#000000;stroke-width:0.1012;stroke-miterlimit:10;}
	.st12{fill:none;stroke:#000000;stroke-width:0.1012;stroke-miterlimit:10;}
	.st13{display:inline;fill:none;stroke:#000000;stroke-width:0.1349;stroke-miterlimit:10;}
	.st14{display:inline;fill:none;stroke:#FFFFFF;stroke-width:0.3035;stroke-miterlimit:10;}
	.st15{display:none;fill:none;stroke:#000000;stroke-width:1.079;stroke-miterlimit:10;}
	.st16{display:none;fill:#FFFFFF;}
	.st17{display:none;fill:none;stroke:#FFFFFF;stroke-width:0.4051;stroke-miterlimit:10;}
	.st18{fill:#FFFFFF;}
	.st19{fill:none;stroke:#000000;stroke-width:0.3414;stroke-miterlimit:10;}
	.st20{display:inline;fill:none;stroke:#000000;stroke-width:0.3414;stroke-miterlimit:10;}
	.st21{display:none;fill:#00007C;}
	.st22{display:none;fill:#1818D6;}
	.st23{display:none;fill:#1B1BAA;}
	.st24{display:none;fill:#BFD80B;}
	.st25{display:none;fill:#808285;}
	.st26{display:inline;fill:#00007C;}
	.st27{display:inline;fill:#BFD80B;}
	.st28{fill:#BFD80B;}
	.st29{fill:#00007C;}
	.st30{fill:url(#SVGID_1_);}
	.st31{fill:url(#SVGID_00000021116573007462256000000006771715626258073226_);}
	.st32{fill:url(#SVGID_00000084488744672402333080000001181069598161064584_);}
	.st33{fill:url(#SVGID_00000001647857697693284660000013768615260214132109_);}
	.st34{fill:url(#SVGID_00000041272454563876925710000014791561827419839127_);}
	.st35{fill:url(#SVGID_00000143617680049431523070000018080914438908663186_);}
	.st36{fill:url(#SVGID_00000146469589076374055150000015166427436123526828_);}
	.st37{fill:url(#SVGID_00000067224430338642631610000008549741324446478481_);}
	.st38{fill:url(#SVGID_00000098181725280843987790000000528728345565000071_);}
	.st39{fill:url(#SVGID_00000175299253094907270400000009257013141001069701_);}
	.st40{fill:url(#SVGID_00000093176062992256779440000007378072915575294384_);}
	.st41{fill:url(#SVGID_00000153669608221060744080000018272187928625730474_);}
	.st42{fill:url(#SVGID_00000165193392322936461150000011947300871563494529_);}
	.st43{fill:url(#SVGID_00000098906022761968462300000000037096284639935373_);}
	.st44{fill:url(#SVGID_00000054232970188588516770000008295936675263841669_);}
	.st45{fill:url(#SVGID_00000147899157582051175860000008425785059952791989_);}
	.st46{fill:#D9E81A;}
	.st47{fill:url(#SVGID_00000004523802197197249320000004618982446407103639_);}
	.st48{fill:url(#SVGID_00000016776586621265721550000015148158675471160221_);}
	.st49{fill:url(#SVGID_00000013909461492750232350000016447663039263393445_);}
	.st50{fill:url(#SVGID_00000075154224352146725400000007496985098968513695_);}
	.st51{fill:url(#SVGID_00000156545704109752439850000009373000179487911307_);}
	.st52{fill:url(#SVGID_00000084504713594859148080000015139178133371611797_);}
	.st53{display:inline;fill:url(#SVGID_00000165956368328415190190000014943581320617577387_);}
	.st54{display:none;fill:url(#SVGID_00000181082365507067922160000002756341789824252051_);}
	.st55{fill:url(#SVGID_00000181066316016715610780000004696027306055997079_);}
	.st56{fill:url(#SVGID_00000116221695465030610250000012372033826172791220_);}
	.st57{fill:url(#SVGID_00000130619546429421003640000007663775903201714855_);}
	.st58{fill:url(#SVGID_00000006689497403095886930000004346812977810877320_);}
	.st59{fill:url(#SVGID_00000055688338862904376520000016603744890843435193_);}
	.st60{fill:url(#SVGID_00000011006517936613024850000014105224698533099912_);}
	.st61{fill:url(#SVGID_00000183235258526406251500000009284852173090142903_);}
	.st62{fill:url(#SVGID_00000027592737092819800480000000346640858529287334_);}
	.st63{fill:url(#SVGID_00000100360836973676283200000012180043357224249767_);}
	.st64{display:inline;fill:#E0EF16;}
	.st65{fill:url(#SVGID_00000094613792518796658680000000368189373852215714_);}
	.st66{fill:url(#SVGID_00000026121682665308620130000009375068351981837498_);}
	.st67{fill:url(#SVGID_00000178202256943071685660000003974640725952026802_);}
	.st68{fill:#1B1BAA;}
	.st69{display:inline;fill:#D9E81A;}
	.st70{display:none;fill:#F1F2F2;}
	.st71{display:none;fill:url(#SVGID_00000149346756023864828380000005218670940963211661_);}
	.st72{display:none;fill:url(#SVGID_00000056400824651585814340000011026219982267701902_);}
	.st73{fill:url(#SVGID_00000155143537664667696990000005759163937376345765_);}
	.st74{fill:url(#SVGID_00000011001692197878972160000014489729697488945822_);}
	.st75{fill:url(#SVGID_00000064319755668696178670000008542675571561503899_);}
	.st76{fill:url(#SVGID_00000124844714826367325800000001842425638551369635_);}
	.st77{fill:url(#SVGID_00000070078922609742778220000015090857534519590822_);}
	.st78{fill:url(#SVGID_00000172409741754943552490000014878487467878344354_);}
	.st79{fill:url(#SVGID_00000038414408651395434840000011055173657156431549_);}
	.st80{fill:url(#SVGID_00000000205103414475611080000009169464688030941363_);}
	.st81{fill:url(#SVGID_00000078018173553057678990000012310892588376808837_);}
	.st82{fill:url(#SVGID_00000038408822544895694750000002139078874804984725_);}
	.st83{fill:url(#SVGID_00000044154569914921129840000007066685883048800185_);}
	.st84{fill:url(#SVGID_00000116208519974324642030000001380377989346517389_);}
	.st85{fill:url(#SVGID_00000061457830413752455670000005420850941043242899_);}
	.st86{fill:url(#SVGID_00000066490809063102282670000008549297295218344328_);}
	.st87{fill:url(#SVGID_00000173862987865453409440000008676693339178702478_);}
	.st88{fill:url(#SVGID_00000132079324047061771470000006278661925257280649_);}
	.st89{fill:url(#SVGID_00000071530701902013192380000017781905757848603554_);}
	.st90{fill:url(#SVGID_00000013881567174443200950000001611908387572028335_);}
	.st91{fill:url(#SVGID_00000063617325575380203160000016592945737367815825_);}
	.st92{fill:url(#SVGID_00000043454603003760808710000013491418487994413742_);}
	.st93{fill:url(#SVGID_00000173138865914645382380000001275136042466562990_);}
	.st94{fill:url(#SVGID_00000094592940228687563630000016512707494225079217_);}
	.st95{fill:url(#SVGID_00000125561750284447166550000013874149864965715359_);}
	.st96{fill:url(#SVGID_00000150093767482147385930000015124601348335167922_);}
	.st97{fill:url(#SVGID_00000127741143413713579440000015450728437791715211_);}
	.st98{fill:url(#SVGID_00000130647965055630635750000013759599557797278616_);}
	.st99{fill:url(#SVGID_00000096774537966450571000000001517481307365990060_);}
	.st100{display:none;fill:#12739E;}
	.st101{fill:#ED1C24;}
	.st102{display:none;fill:none;stroke:#ED1C24;stroke-width:2.3936;stroke-miterlimit:10;}
	.st103{display:none;fill:none;stroke:#ED1C24;stroke-width:1.117;stroke-miterlimit:10;}
	.st104{display:inline;fill:none;stroke:#ED1C24;stroke-width:1.117;stroke-miterlimit:10;}
	.st105{display:inline;fill:none;stroke:#ED1C24;stroke-width:1.2647;stroke-miterlimit:10;}
	.st106{display:inline;fill:#16171D;}
	.st107{display:none;fill:#16171D;}
	.st108{display:none;fill:none;stroke:#FFFFFF;stroke-width:1.5957;stroke-miterlimit:10;}
	.st109{display:none;fill:#D8F91C;}
	.st110{display:none;fill:#68B123;}
	.st111{display:none;fill:#2E6D3E;}
	.st112{display:none;fill:url(#SVGID_00000105424168206016295150000013869676195547920032_);}
	.st113{display:none;fill:url(#SVGID_00000099664597422426346630000006325691181100658344_);}
	.st114{display:none;fill:url(#SVGID_00000092449908314900437140000008956387227614852005_);}
	.st115{display:none;fill:#231F20;}
	.st116{display:inline;fill:url(#SVGID_00000027597061063010625200000005242940937613859714_);}
	.st117{display:inline;fill:url(#SVGID_00000176019969327864230420000000614680742293395126_);}
	.st118{display:inline;fill:url(#SVGID_00000058563112379414531910000002990537458227834288_);}
	.st119{display:inline;fill:none;stroke:#231F20;stroke-width:0.4952;stroke-miterlimit:10;}
	.st120{fill:none;stroke:#231F20;stroke-width:0.4952;stroke-miterlimit:10;}
	.st121{fill:none;stroke:#231F20;stroke-width:0.3301;stroke-miterlimit:10;}
	.st122{fill:url(#SVGID_00000112622746755565712330000000390130712660689342_);}
	.st123{fill:url(#SVGID_00000004539372882043273660000015262057353655947965_);}
	.st124{fill:url(#SVGID_00000162344579960652441320000002966988397692345520_);}
	.st125{fill:url(#SVGID_00000001637899110422858690000002181396268324257950_);}
	.st126{fill:url(#SVGID_00000010285228899705334750000002825092759993378232_);}
	.st127{fill:url(#SVGID_00000150085389343459815660000006483859184505517490_);}
	.st128{fill:url(#SVGID_00000028309203945455761110000007815107951331783564_);}
	.st129{fill:url(#SVGID_00000116214982810808496460000005203015677671010732_);}
	.st130{fill:url(#SVGID_00000172431308225772886140000011579311610882799009_);}
	.st131{fill:url(#SVGID_00000032614062294552347720000006946099174118322356_);}
	.st132{fill:url(#SVGID_00000158015599243366659460000003592502996334292380_);}
	.st133{fill:url(#SVGID_00000037659219041875337410000007775353031006009485_);}
	.st134{fill:url(#SVGID_00000078730428207284517420000003005217730472623003_);}
	.st135{fill:url(#SVGID_00000114754548503124499710000003973930696185574061_);}
	.st136{fill:url(#SVGID_00000075884873419215796230000000419875067388260777_);}
	.st137{fill:url(#SVGID_00000071559981056211937100000004277453069579404689_);}
	.st138{fill:url(#SVGID_00000168103569328703778810000012460986833351920781_);}
	.st139{fill:url(#SVGID_00000139989808084307170370000008090996941074790576_);}
	.st140{fill:url(#SVGID_00000083080962258557523120000018206384217435085240_);}
	.st141{fill:url(#SVGID_00000143595590807231152710000017364128959709782696_);}
	.st142{fill:url(#SVGID_00000066498220354641396490000005498131213292068260_);}
	.st143{fill:url(#SVGID_00000030452451387612353920000002868444334795756720_);}
	.st144{fill:url(#SVGID_00000034779064168972753140000016544937295866906814_);}
	.st145{display:none;fill:url(#SVGID_00000115492735895452877900000001207611898576113802_);}
	.st146{display:none;fill:url(#SVGID_00000109027141482251516200000014852979665889781388_);}
	.st147{display:none;fill:url(#SVGID_00000052795953481466341760000002100929582356289978_);}
	.st148{display:none;fill:url(#SVGID_00000065758250171650454430000016212006724890489498_);}
	.st149{display:none;fill:url(#SVGID_00000069392826741489606420000001413590316151971987_);}
	.st150{display:none;fill:url(#SVGID_00000116212518177762123520000000401974105304133288_);}
	.st151{fill:url(#SVGID_00000059990575633848319070000015555932657285653688_);}
	.st152{fill:url(#SVGID_00000178185225126224596200000018020726917176429487_);}
	.st153{display:inline;fill:url(#SVGID_00000052086939837700326470000010906173251586322363_);}
	.st154{display:inline;fill:url(#SVGID_00000102515080886661734370000012954584574918683793_);}
	.st155{display:inline;fill:url(#SVGID_00000168114983329806689280000017399663203589830570_);}
	.st156{display:inline;opacity:0.6;fill:url(#SVGID_00000041975706468805989990000001577500076038042523_);}
	.st157{display:inline;fill:url(#SVGID_00000012443529001827433590000009194646837747283635_);}
	.st158{display:inline;fill:url(#SVGID_00000002364749794376617250000000601597311538697878_);}
	.st159{display:inline;fill:url(#SVGID_00000057866515289157018660000008151301489709979020_);}
	.st160{display:inline;opacity:0.6;fill:url(#SVGID_00000110471685472019360080000001843035908192887178_);}
	.st161{display:inline;opacity:0.6;fill:#FFFFFF;}
	.st162{fill:url(#SVGID_00000043440936339017484650000016007746704083321491_);}
	.st163{fill:url(#SVGID_00000071541422163560276350000000528590099135736212_);}
	.st164{fill:url(#SVGID_00000111183501180381554840000008184695157085518998_);}
	.st165{fill:url(#SVGID_00000115497214928246892300000018174667153952231598_);}
	.st166{fill:#231F20;}
	.st167{fill:url(#SVGID_00000049206512966731448570000015200003212226705851_);}
	.st168{fill:url(#SVGID_00000046303307144992686120000004533370421774381233_);}
	.st169{fill:url(#SVGID_00000093152049551086066950000018133753881461760896_);}
	.st170{fill:url(#SVGID_00000026141006564657638010000013268245677046621357_);}
	.st171{fill:url(#SVGID_00000119075625508855619250000008231996359079084198_);}
	.st172{fill:url(#SVGID_00000034776778560976048490000008568149197357172663_);}
	.st173{display:none;fill:url(#SVGID_00000031192934665270277530000004462160776215637928_);}
	.st174{display:none;fill:url(#SVGID_00000092431235511387959020000008508356444353004175_);}
	.st175{display:none;fill:url(#SVGID_00000082360633007293454030000012726452623481914769_);}
	.st176{display:none;opacity:0.6;fill:url(#SVGID_00000173120027112424651100000013492319276309991814_);}
	.st177{fill:url(#SVGID_00000106847949142602005270000010380416530202198457_);}
	.st178{fill:url(#SVGID_00000021098113995445551280000006701248075462345407_);}
	.st179{fill:url(#SVGID_00000043427254577353318380000007699070360993615764_);}
	.st180{display:inline;fill:url(#SVGID_00000018224537769700485490000013141448711655255169_);}
	.st181{display:inline;fill:#231F20;}
	.st182{display:inline;fill:url(#SVGID_00000085239148868478162090000003704969721482641044_);}
	.st183{display:inline;fill:url(#SVGID_00000124126008319509324010000017692003831069948060_);}
	.st184{display:inline;fill:url(#SVGID_00000178891921815604115700000005154823173792713605_);}
	.st185{display:inline;fill:url(#SVGID_00000098198703210394030310000003997520460981068684_);}
	.st186{display:none;fill:url(#SVGID_00000183966225820825575050000013970473365258368645_);}
	.st187{display:inline;fill:url(#SVGID_00000067201854287796638220000000542034094316378781_);}
	.st188{fill:url(#SVGID_00000013871163809617268190000000879211197508563633_);}
	.st189{fill:url(#SVGID_00000070803749590835511600000010796392395813180819_);}
	.st190{display:inline;opacity:0.6;fill:url(#SVGID_00000086676244638978568910000002811097190453915528_);}
	.st191{display:inline;fill:url(#SVGID_00000085931733684517822530000014135906358380384913_);}
	.st192{display:inline;fill:url(#SVGID_00000059310958773657168120000017891676338123580853_);}
	.st193{fill:url(#SVGID_00000049212105860161368540000005386021276511524225_);}
	.st194{fill:url(#SVGID_00000111177963530041793480000018400415487549070232_);}
	.st195{display:inline;opacity:0.6;fill:url(#SVGID_00000166641976089561311620000000667389015141148570_);}
	.st196{display:none;fill:none;stroke:#FFFFFF;stroke-width:2.3069;stroke-miterlimit:10;}
	.st197{display:none;fill:none;stroke:#FFFFFF;stroke-width:3.9818;stroke-miterlimit:10;}
	.st198{display:inline;fill:url(#SVGID_00000170982491256214659860000014336313138095203258_);}
	.st199{fill:url(#SVGID_00000004524322802565853240000018173830035582498751_);}
	.st200{fill:url(#SVGID_00000055664653969501424700000001664391055490837121_);}
	.st201{display:inline;opacity:0.6;fill:url(#SVGID_00000094595512726825822610000015548644203161404559_);}
	.st202{fill:url(#SVGID_00000161590173360731271270000007137753115946436481_);}
	.st203{fill:url(#SVGID_00000065074816068390481210000000969130242253352601_);}
	.st204{fill:url(#SVGID_00000033333414725005728910000006071972179573466251_);}
	.st205{fill:url(#SVGID_00000168809474115873820730000000390333680543094181_);}
	.st206{fill:url(#SVGID_00000058570585140030988980000017802906000119376546_);}
	.st207{fill:url(#SVGID_00000088834036005377924230000000743258179987776643_);}
	.st208{fill:url(#SVGID_00000022552859898944043960000006071809577427970721_);}
	.st209{fill:url(#SVGID_00000114780648555291434510000017852315956787638951_);}
	.st210{fill:url(#SVGID_00000048486036398683374060000006176430708414866856_);}
	.st211{fill:url(#SVGID_00000096769944101947145190000006372221375620447400_);}
	.st212{fill:url(#SVGID_00000155115545377655918960000010938841396673780386_);}
	.st213{fill:url(#SVGID_00000176023695920625926120000006859290648939040643_);}
	.st214{fill:url(#SVGID_00000086690676542864909810000002541641221097781128_);}
	.st215{fill:url(#SVGID_00000045611752249500855890000008232777235408417963_);}
	.st216{fill:url(#SVGID_00000078020962555169842420000000088362025107702156_);}
	.st217{fill:url(#SVGID_00000076591785962982629360000006981886320117404057_);}
	.st218{fill:#80C022;}
	.st219{fill:url(#SVGID_00000000208673644320843210000005958132345547439007_);}
	.st220{fill:url(#SVGID_00000068678317120838418780000012272312955154057346_);}
	.st221{fill:url(#SVGID_00000127015878007565498900000005069245819427382442_);}
	.st222{fill:url(#SVGID_00000035520760045553403810000000234287740780837789_);}
	.st223{fill:url(#SVGID_00000006697607964796098600000010356288891460428690_);}
	.st224{fill:url(#SVGID_00000154406219517740112870000012082400261134177450_);}
	.st225{fill:url(#SVGID_00000149367403668454930820000014477457981154503812_);}
	.st226{fill:url(#SVGID_00000049903424375194516200000007008942556503649443_);}
	.st227{fill:url(#SVGID_00000127044991259216098630000018423620713206839177_);}
</style>

<g>
	<path class="st18" d="M454.22,1144.15v21.82h-69.09v38.39h73.54v21.82h-53.54c-5.93,0-10.74-1.78-14.45-5.35
		c-3.71-3.57-5.56-9.06-5.56-16.47c-7.41,0-12.86-1.88-16.37-5.66c-3.5-3.77-5.25-8.69-5.25-14.75v-56.97
		c0-6.87,2.05-11.95,6.16-15.25c4.11-3.3,9.26-4.95,15.46-4.95c0-7.54,1.85-13.1,5.56-16.67c3.7-3.57,8.52-5.35,14.45-5.35h53.54
		v22.02h-73.54v37.38H454.22z"/>
	<path class="st18" d="M619.28,1084.75v119.81h-21.41v21.62h-32.12v-21.82h-21.42v-97.58H512.6v119.4h-21.62v-119.4h21.41v-22.02
		h31.92v22.02h21.42v97.58h32.12v-119.6H619.28z"/>
	<path class="st18" d="M741.5,1144.35c6.19,0,11.31,1.69,15.35,5.05c4.04,3.37,6.06,8.49,6.06,15.35v41.01
		c0,6.06-1.75,10.98-5.25,14.75c-3.5,3.77-8.89,5.66-16.16,5.66h-68.29v-21.82c-7.27,0-12.7-1.88-16.26-5.66
		c-3.57-3.77-5.35-8.69-5.35-14.75v-56.97c0-6.87,2.05-11.95,6.16-15.25c4.11-3.3,9.26-4.95,15.46-4.95c0-7.54,1.85-13.1,5.56-16.67
		c3.7-3.57,8.52-5.35,14.45-5.35h64.04v22.02h-84.05v97.58h68.29v-37.98h-41.62v-22.02H741.5z"/>
	<path class="st18" d="M795.24,1085.35h21.62v140.82h-21.62V1085.35z"/>
	<path class="st18" d="M977.47,1084.75v119.81h-21.41v21.62h-32.12v-21.82h-21.42v-97.58H870.8v119.4h-21.62v-119.4h21.42v-22.02
		h31.92v22.02h21.42v97.58h32.12v-119.6H977.47z"/>
	<path class="st18" d="M1100.51,1144.15v21.82h-69.09v38.39h73.54v21.82h-53.54c-5.93,0-10.74-1.78-14.45-5.35
		c-3.71-3.57-5.56-9.06-5.56-16.47c-7.41,0-12.86-1.88-16.37-5.66c-3.5-3.77-5.25-8.69-5.25-14.75v-56.97
		c0-6.87,2.05-11.95,6.16-15.25c4.11-3.3,9.26-4.95,15.46-4.95c0-7.54,1.85-13.1,5.56-16.67c3.7-3.57,8.52-5.35,14.45-5.35h53.54
		v22.02h-73.54v37.38H1100.51z"/>
	<path class="st18" d="M1227.99,1144.15v21.82h-69.09v38.39h73.54v21.82h-53.54c-5.93,0-10.74-1.78-14.45-5.35
		c-3.71-3.57-5.56-9.06-5.56-16.47c-7.41,0-12.86-1.88-16.37-5.66c-3.5-3.77-5.25-8.69-5.25-14.75v-56.97
		c0-6.87,2.05-11.95,6.16-15.25c4.11-3.3,9.26-4.95,15.46-4.95c0-7.54,1.85-13.1,5.56-16.67c3.7-3.57,8.52-5.35,14.45-5.35h53.54
		v22.02h-73.54v37.38H1227.99z"/>
	<path class="st18" d="M1370.42,1226.17h-21.62v-49.9h-62.43v49.9h-21.62v-119.4c0-6.33,1.62-11.58,4.85-15.76
		c3.23-4.17,8.28-6.26,15.15-6.26h65.66c5.79,0,10.54,1.79,14.24,5.35c3.7,3.57,5.62,8.99,5.76,16.26v27.68
		c0,6.87-2.06,11.99-6.16,15.35c-4.11,3.37-9.26,5.05-15.46,5.05v21.82c6.19,0,11.35,1.75,15.46,5.25c4.11,3.5,6.16,8.69,6.16,15.56
		V1226.17z M1286.38,1154.25h62.43v-47.48h-62.43V1154.25z"/>
	<path class="st18" d="M1493.46,1144.15v21.82h-69.09v38.39h73.54v21.82h-53.54c-5.93,0-10.74-1.78-14.45-5.35
		c-3.71-3.57-5.56-9.06-5.56-16.47c-7.41,0-12.86-1.88-16.37-5.66c-3.5-3.77-5.25-8.69-5.25-14.75v-56.97
		c0-6.87,2.05-11.95,6.16-15.25c4.11-3.3,9.26-4.95,15.46-4.95c0-7.54,1.85-13.1,5.56-16.67c3.7-3.57,8.52-5.35,14.45-5.35h53.54
		v22.02h-73.54v37.38H1493.46z"/>
	<path class="st18" d="M1594.88,1084.75c5.93,0,10.74,1.79,14.45,5.35c3.7,3.57,5.56,9.06,5.56,16.46c6.19,0,11.35,1.69,15.46,5.05
		c4.11,3.37,6.16,8.49,6.16,15.35v56.97c0,5.93-1.79,10.81-5.35,14.65c-3.57,3.84-8.99,5.76-16.26,5.76c0,7.41-1.85,12.9-5.56,16.47
		c-3.71,3.57-8.52,5.35-14.45,5.35h-64.65v-141.42H1594.88z M1614.88,1106.77h-63.03v97.58h63.03V1106.77z"/>
	<path class="st18" d="M773.89,1351.36h-9.71v-48.4h-19.59v-9.71h49.81v9.71h-20.51V1351.36z"/>
	<path class="st18" d="M885.72,1302.96l-35.37-0.08v14.45h35.12v8.47h-35.12v16.02h35.37v9.55h-45.08v-58.12h45.08V1302.96z"/>
	<path class="st18" d="M991.07,1293.24v58.12H970.9l-24.91-56.45h-0.83v56.45h-9.71v-58.12h19.84l25.4,56.45h0.67v-56.45H991.07z"/>
	<path class="st18" d="M1097.34,1293.24v58.12h-20.17l-24.91-56.45h-0.83v56.45h-9.71v-58.12h19.84l25.4,56.45h0.67v-56.45H1097.34z
		"/>
	<path class="st18" d="M1157.7,1351.28h-9.71v-58.03h9.71V1351.28z"/>
	<path class="st18" d="M1230.17,1352.6c-4.59,0-8.48-0.48-11.66-1.45c-3.18-0.97-5.78-2.31-7.8-4.03c-2.02-1.71-3.47-3.74-4.36-6.06
		c-0.89-2.32-1.33-4.84-1.33-7.56h9.55c0,2.27,0.54,4.11,1.62,5.52c1.08,1.41,2.41,2.51,3.99,3.28c1.58,0.78,3.28,1.31,5.1,1.62
		c1.83,0.31,3.46,0.46,4.9,0.46c2.99,0,5.49-0.26,7.51-0.79c2.02-0.52,3.65-1.22,4.9-2.08c1.24-0.86,2.13-1.83,2.66-2.91
		c0.52-1.08,0.79-2.23,0.79-3.44c0-1.88-0.31-3.43-0.91-4.65c-0.61-1.22-1.55-2.17-2.82-2.86c-1.27-0.69-2.91-1.22-4.9-1.58
		c-1.99-0.36-4.37-0.59-7.14-0.71c-1.61-0.11-3.31-0.18-5.11-0.21c-1.8-0.03-3.58-0.19-5.35-0.5c-1.77-0.3-3.46-0.79-5.06-1.45
		c-1.61-0.67-3.02-1.6-4.23-2.82c-1.22-1.22-2.2-2.82-2.95-4.81c-0.75-1.99-1.12-4.46-1.12-7.39c0-2.38,0.53-4.55,1.58-6.52
		c1.05-1.96,2.57-3.68,4.57-5.15c1.99-1.47,4.51-2.59,7.56-3.36c3.04-0.77,6.53-1.16,10.46-1.16c3.87,0,7.25,0.4,10.13,1.2
		c2.88,0.8,5.3,1.95,7.26,3.45c1.96,1.49,3.42,3.32,4.36,5.48c0.94,2.16,1.41,4.59,1.41,7.3h-9.55c0-1.66-0.41-3.07-1.24-4.23
		c-0.83-1.16-1.94-2.1-3.32-2.82c-1.38-0.72-2.95-1.26-4.69-1.62c-1.74-0.36-3.5-0.54-5.27-0.54c-1.66,0-3.34,0.17-5.02,0.5
		c-1.69,0.33-3.17,0.83-4.44,1.49c-1.27,0.66-2.3,1.49-3.07,2.49c-0.78,1-1.16,2.19-1.16,3.57c0,1.72,0.29,3.13,0.87,4.23
		c0.58,1.11,1.45,2.02,2.62,2.74c1.16,0.72,2.64,1.23,4.44,1.54c1.8,0.31,3.91,0.49,6.35,0.54c4.82,0.17,8.83,0.65,12.04,1.45
		c3.21,0.8,5.78,1.95,7.72,3.44c1.94,1.49,3.32,3.29,4.15,5.4c0.83,2.1,1.25,4.51,1.25,7.22c0,3.21-0.55,5.94-1.66,8.18
		c-1.11,2.24-2.74,4.07-4.9,5.48c-2.16,1.41-4.8,2.45-7.93,3.11C1237.8,1352.27,1234.22,1352.6,1230.17,1352.6z"/>
	<radialGradient id="SVGID_1_" cx="906.2521" cy="642.038" r="265.1377" gradientUnits="userSpaceOnUse">
		<stop  offset="0" style="stop-color:#D8F91C"/>
		<stop  offset="0.5186" style="stop-color:#68B123"/>
		<stop  offset="1" style="stop-color:#2E6D3E"/>
	</radialGradient>
	<path class="st30" d="M905.89,788.44c1.19-30.55,10.42-59,26.46-81.09c17.18-23.66,40.13-37,64.61-37.62
		c0.59-0.02,1.11-0.02,1.63-0.02h2.79c0.52,0,1.04,0,1.63,0.02c24.49,0.62,47.44,13.96,64.61,37.62
		c16.04,22.08,25.26,50.55,26.48,81.09h19.63c-2.63-77.29-50.36-139.52-110.18-141.02c-0.69-0.02-1.37-0.02-2.06-0.02
		c0,0-3.05,0-3.08,0c-0.66,0-1.33,0-1.99,0.02c-59.85,1.5-107.56,63.72-110.18,141.02H905.89z"/>
	<g>
		
			<radialGradient id="SVGID_00000148642024621606061960000013799509060416455354_" cx="955.0475" cy="726.5735" r="224.8663" gradientUnits="userSpaceOnUse">
			<stop  offset="0" style="stop-color:#D8F91C"/>
			<stop  offset="0.5186" style="stop-color:#68B123"/>
			<stop  offset="1" style="stop-color:#2E6D3E"/>
		</radialGradient>
		<path style="fill:url(#SVGID_00000148642024621606061960000013799509060416455354_);" d="M1112.13,821.29h-19.85
			c-3.92,25.61-13.57,49.05-28.01,67.58c-16.64,21.33-38.03,33.82-60.56,35.49c-1.25,0.09-2.51,0.15-3.76,0.18
			c-1.23-0.03-2.45-0.09-3.68-0.18c-22.5-1.63-43.89-14.13-60.56-35.49c-14.47-18.5-24.1-41.99-27.98-67.58h-19.9
			c4.35,32.92,16.85,62.91,36.15,86l1.31,1.72l-0.06,0.06c29.9,39.57,44.41,71.77,51.46,93.51h22.2l-1.32-4.15
			c-5.25-16.78-12.93-34.38-22.79-52.3l-2.68-4.87l5.37,1.43c7.24,1.93,14.62,2.98,22.06,3.12h0.9c7.44-0.15,14.88-1.2,22.12-3.12
			l5.4-1.46l-2.71,4.87c-10.16,18.27-17.95,35.87-23.14,52.33l-1.3,4.15h22.36c6.99-21.27,21.47-53.01,51.58-93.49l-0.15-0.15
			l1.4-1.66C1095.3,884.2,1107.79,854.24,1112.13,821.29z"/>
	</g>
	<g>
		
			<radialGradient id="SVGID_00000181068237138617237760000001622524640083543720_" cx="945.2169" cy="729.4496" r="164.7097" gradientUnits="userSpaceOnUse">
			<stop  offset="0" style="stop-color:#D8F91C"/>
			<stop  offset="0.5186" style="stop-color:#68B123"/>
			<stop  offset="1" style="stop-color:#2E6D3E"/>
		</radialGradient>
		<path style="fill:url(#SVGID_00000181068237138617237760000001622524640083543720_);" d="M1025.73,827.43l-13.59-13.59
			l13.59-13.59l13.59,13.59l-3.41,3.41l24.93,24.93c3.93-9.45,3.93-18.71,0-28.16c-3.06-7.39-7.91-13.77-14.4-18.97
			c-1.61-1.29-3.34-2.53-5.16-3.68c-5.05-3.21-10.54-5.31-16.37-7.54c-1.6-0.61-3.2-1.23-4.79-1.86
			c-9.46-3.79-19.25-7.71-27.76-14.17c-0.35-0.26-0.69-0.53-1.02-0.8c-10.76-8.62-15.73-19.91-14.78-33.56
			c0.06-0.89,0.15-1.77,0.25-2.63c-11.3,3.72-21.05,9.58-29.16,17.48l49.67,49.67l-3.84,26.05l14.75,14.75l3.76-3.76l14.13,14.13
			L1012,863.23l-14.13-14.13l3.59-3.59l-18.16-18.16l3.84-26.05l-45.91-45.91c-1.84,2.32-3.58,4.76-5.2,7.34
			c-7.09,11.32-10.88,24.05-11.28,37.84c2.27-0.66,4.83-1.13,7.94-1.47c9.14-0.98,16.52,0.91,22.57,5.76
			c1.01,0.81,1.99,1.71,2.91,2.68c3.52,3.7,6.37,8.25,8.71,13.92c1.64,3.98,3.23,8.05,4.77,11.99c1.25,3.21,2.51,6.42,3.8,9.61
			c3.35,8.27,7.85,14.59,13.76,19.33c0.67,0.53,1.36,1.06,2.07,1.55c14.25,10.01,28.3,11.74,42.94,5.3
			c9.1-4,16.42-10.14,21.85-18.27l-26.95-26.95L1025.73,827.43z"/>
		
			<radialGradient id="SVGID_00000140727247407509246550000011122747505388154256_" cx="945.2169" cy="729.4496" r="164.7097" gradientUnits="userSpaceOnUse">
			<stop  offset="0" style="stop-color:#D8F91C"/>
			<stop  offset="0.5186" style="stop-color:#68B123"/>
			<stop  offset="1" style="stop-color:#2E6D3E"/>
		</radialGradient>
		<path style="fill:url(#SVGID_00000140727247407509246550000011122747505388154256_);" d="M1074.72,794.24
			c-2.6-20.96-11.72-37.84-27.09-50.15c-3.34-2.68-7.03-5.18-10.98-7.45c-9.27-5.32-19.23-8.44-29.76-9.33l18.2,18.2l3.41-3.41
			l13.59,13.59l-13.59,13.59l-13.59-13.59l3.41-3.41l-24.92-24.92c-1.72,0.15-3.46,0.34-5.21,0.61c-0.03,0-0.06,0.01-0.08,0.01
			c-1.92,9.85-0.85,17.14,3.43,23.55c1.78,2.66,3.98,5.03,6.72,7.23c2.97,2.38,6.52,4.54,11.52,7c5.46,2.69,11.26,4.95,16.88,7.14
			c3.77,1.47,7.67,2.99,11.47,4.64c5.51,2.39,10.53,5.39,14.92,8.9c6.52,5.23,11.87,11.77,15.89,19.46
			c2.07,3.96,3.59,8.11,4.57,12.44C1075.3,810.28,1075.71,802.21,1074.72,794.24z"/>
		
			<radialGradient id="SVGID_00000036231161503049933280000013236114690680050104_" cx="945.2169" cy="729.4496" r="164.7097" gradientUnits="userSpaceOnUse">
			<stop  offset="0" style="stop-color:#D8F91C"/>
			<stop  offset="0.5186" style="stop-color:#68B123"/>
			<stop  offset="1" style="stop-color:#2E6D3E"/>
		</radialGradient>
		<path style="fill:url(#SVGID_00000036231161503049933280000013236114690680050104_);" d="M967.73,852.22
			c-2.45-5.04-4.44-10.3-6.36-15.39c-0.39-1.03-0.77-2.05-1.17-3.07c-2.07-5.42-4.21-11.02-7.6-15.97c-1.23-1.8-2.61-3.31-4.1-4.51
			c-3.35-2.68-7.34-3.89-12.2-3.68c-3.92,0.16-7.77,1.05-11.05,1.92c3.34,20.92,12.3,37.35,26.62,48.83
			c7.38,5.91,16.35,10.65,26.67,14.1c4.35,1.45,8.96,2.39,13.92,2.83c-3.62-1.87-6.92-4.01-9.89-6.39
			C976.32,865.88,971.33,859.6,967.73,852.22z"/>
	</g>
</g>
</svg>
