<svg version="1.2" xmlns="http://www.w3.org/2000/svg" viewBox="0 0 4380 4380" width="4380" height="4380"><defs><linearGradient id="P" gradientUnits="userSpaceOnUse"/><radialGradient id="g1" cx="0" cy="0" r="1" href="#P" gradientTransform="matrix(4793.62,0,0,4793.62,595.564,70.034)"><stop stop-color="#d8f91c"/><stop offset=".52" stop-color="#68b123"/><stop offset="1" stop-color="#2e6d3e"/></radialGradient><radialGradient id="g2" cx="0" cy="0" r="1" href="#P" gradientTransform="matrix(4793.62,0,0,4793.62,595.564,70.034)"><stop stop-color="#d8f91c"/><stop offset=".52" stop-color="#68b123"/><stop offset="1" stop-color="#2e6d3e"/></radialGradient><radialGradient id="g3" cx="0" cy="0" r="1" href="#P" gradientTransform="matrix(4793.62,0,0,4793.62,595.564,70.034)"><stop stop-color="#d8f91c"/><stop offset=".52" stop-color="#68b123"/><stop offset="1" stop-color="#2e6d3e"/></radialGradient></defs><style>.a{fill:url(#g1)}.b{fill:url(#g2)}.c{fill:url(#g3)}</style><path fill-rule="evenodd" d="m2189.9 4379.9c-1211 0-2189.9-978.9-2189.9-2190 0-1211 978.9-2189.9 2189.9-2189.9 1211.1 0 2190 978.9 2190 2189.9 0 1211.1-978.9 2190-2190 2190z"/><path class="a" d="m2938.7 2921.6l-395.5-395.5 395.5-395.6 395.6 395.6-99.2 99.1 725.6 725.6c114.2-275.1 114.2-544.4 0.1-819.6-89.2-215-230.2-400.8-419-552.1-46.8-37.5-97.3-73.5-150.1-107.1-146.9-93.3-306.9-154.5-476.3-219.3-46.6-17.9-93.2-35.7-139.5-54.3-275.5-110.2-560.3-224.3-807.8-412.5-10.2-7.7-20.1-15.4-29.8-23.3-313.1-250.8-457.9-579.5-430.3-976.8 1.8-25.8 4.4-51.4 7.3-76.6-329 108.3-612.6 278.9-848.6 508.7l1445.5 1445.5-111.8 758.1 429.2 429.2 109.5-109.5 411.2 411.2-411.2 411.1-411.1-411.1 104.4-104.4-528.5-528.4 111.9-758.2-1336.3-1336.2c-53.5 67.5-104.2 138.4-151.3 213.6-206.4 329.5-316.7 699.9-328.2 1101.2 66.1-19.3 140.6-33 231.1-42.7 265.9-28.4 480.8 26.4 656.9 167.6 29.4 23.5 57.9 49.7 84.8 78 102.5 107.7 185.3 240.2 253.4 405.1 47.8 116 94.1 234.4 138.9 348.9 36.5 93.4 73 186.8 110.7 279.8 97.4 240.6 228.3 424.6 400.5 562.5 19.4 15.6 39.6 30.8 60.1 45.2 414.8 291.2 823.7 341.7 1249.8 154.2 264.8-116.4 478-295.1 636.1-531.7l-784.4-784.4z"/><path class="b" d="m4364.6 1955.6c-75.8-610.1-341-1101.2-788.3-1459.6-97.3-78-204.8-150.9-319.4-216.7-269.9-155-559.8-245.6-866.3-271.6l529.7 529.7 99.2-99.1 395.5 395.5-395.5 395.6-395.6-395.6 99.2-99.1-725.3-725.4c-50.2 4.5-100.6 10-151.5 17.7-0.8 0.1-1.6 0.2-2.4 0.3-55.9 286.8-24.8 498.8 99.7 685.3 51.8 77.5 115.8 146.2 195.7 210.3 86.4 69.2 189.8 132 335.3 203.7 158.8 78.3 327.8 144.2 491.2 207.8 109.8 42.8 223.3 87 333.8 134.9 160.4 69.7 306.5 156.8 434.2 259.2 189.8 152.1 345.4 342.6 462.6 566.4 60.2 115.1 104.6 236.1 132.9 362.1 52.2-234.4 64.1-469.3 35.3-701.4z"/><path class="c" d="m1250.9 3643c-71.4-146.6-129.3-299.7-185.2-447.8-11.3-29.9-22.6-59.7-34-89.5-60.2-157.6-122.5-320.6-221.2-464.7-35.8-52.3-75.9-96.4-119.4-131.2-97.4-78.1-213.6-113.1-355.1-107.2-114 4.8-226 30.6-321.6 56 97.2 608.9 357.8 1086.9 774.8 1421 214.7 172.1 475.9 310.1 776.1 410.3 126.5 42.2 260.7 69.5 405.1 82.3-105.2-54.6-201.5-116.7-287.9-185.9-181.8-145.7-327-328.5-431.6-543.3z"/></svg>